<svg xmlns="http://www.w3.org/2000/svg" width="14.003" height="30.001" viewBox="1889.534 1070.285 14.003 30.001"><path d="M1894.149 1071.831c1.17-1.114 2.834-1.49 4.403-1.537 1.66-.015 3.32-.006 4.98-.005.006 1.751.007 3.503-.001 5.254-1.073-.001-2.146.003-3.219-.001-.68-.043-1.379.473-1.503 1.147-.016 1.172-.006 2.345-.005 3.516 1.574.007 3.147-.001 4.721.004-.116 1.696-.326 3.383-.572 5.064-1.39.013-2.781-.001-4.171.007-.012 5 .007 10-.01 15-2.064.008-4.13-.004-6.194.006-.04-5.001.003-10.004-.022-15.005-1.007-.011-2.015.007-3.022-.009.004-1.68.002-3.361.002-5.042 1.007-.012 2.014.003 3.02-.007.031-1.634-.03-3.27.032-4.903.101-1.293.594-2.596 1.561-3.489Z" fill="#3d58a6" fill-rule="evenodd" data-name="Path 26"/></svg>