<svg xmlns="http://www.w3.org/2000/svg" width="100.181" height="30.574" viewBox="1810 30 100.181 30.574"><g data-name="Group 7"><path d="M1817.44 54.765c-.102 0-.255-.051-.51-.204l-5.809-5.605c-.306-.255-.509-.459-.611-.612a2.167 2.167 0 0 1-.357-.509 1.413 1.413 0 0 1-.153-.663v-.815c0-.255.051-.458.153-.662.153-.204.255-.408.357-.51l.611-.611 5.758-5.758a.862.862 0 0 1 .51-.153c.204 0 .356.051.509.203.102.153.204.306.204.51V40.548c0 .102-.051.153-.051.204a.387.387 0 0 1-.102.204c-.051.102-.102.153-.102.153 0 .051-.051.102-.152.203l-.153.153s-.102.051-.204.204c-.102.102-.204.153-.204.204l-4.484 4.637c-.102.102-.204.204-.204.306 0 .102.05.204.204.306l4.484 4.433c.051.051.102.102.204.153.102.102.153.152.204.152l.153.153.152.153c.05.051.05.102.102.153.051.051.051.153.102.204 0 .051.051.153.051.204v1.274a.653.653 0 0 1-.204.509c-.153.204-.305.255-.458.255Z" fill="#ee4036" fill-rule="evenodd" data-name="Path 19"/><path d="M1823.045 60.574c-.102 0-.204-.153-.204-.408v-.152l4.688-29.403c.102-.407.204-.611.357-.611h2.752c.152 0 .203.153.203.408v.153l-4.688 29.402c-.102.407-.203.611-.356.611h-2.752Z" fill="#ee4036" fill-rule="evenodd" data-name="Path 20"/><path d="M1835.275 57.16c-.204 0-.306-.051-.408-.153-.102-.102-.102-.306-.102-.611V34.229c0-.305.051-.56.102-.611.102-.102.204-.153.408-.153h2.904c.204 0 .306.051.408.153.102.102.102.306.102.611v8.765c0 .102 0 .204.051.255.051.102.102.102.153.102h5.962c.051 0 .101-.051.152-.102.051-.102.102-.153.102-.255v-8.765c0-.305.051-.509.153-.611.102-.102.204-.153.408-.153h2.955c.153 0 .306.051.357.153.102.102.102.306.102.611v22.167c0 .305-.051.56-.102.611a.463.463 0 0 1-.357.153h-2.955c-.102 0-.204 0-.255-.051l-.204-.204a1.278 1.278 0 0 1-.102-.509v-10.09c0-.255-.051-.356-.203-.356h-6.013c-.153 0-.204.101-.204.356v10.09c0 .305-.051.509-.153.611-.102.102-.204.153-.408.153h-2.853Z" fill="#ee4036" fill-rule="evenodd" data-name="Path 21"/><path d="M1856.473 57.16c-.153 0-.306-.051-.357-.153-.102-.102-.153-.306-.153-.611V36.522c0-.254-.051-.407-.204-.407h-3.77c-.051 0-.102-.051-.153-.153-.051-.102-.051-.255-.051-.459v-1.325c0-.305.051-.509.102-.56.102-.102.203-.153.407-.153h11.262c.153 0 .305.051.356.153.102.102.102.306.102.56v1.325c0 .255-.051.459-.102.51-.051.051-.203.102-.407.102h-3.414c-.153 0-.204.153-.204.407v19.874c0 .305-.05.56-.153.662-.102.102-.204.153-.408.153h-2.853v-.051Z" fill="#ee4036" fill-rule="evenodd" data-name="Path 22"/><path d="M1866.919 57.16c-.306 0-.459-.255-.459-.815v-.102l.917-21.912c0-.611.204-.917.51-.917h3.159c.204 0 .357.051.51.153.153.102.255.306.306.611l3.363 15.593c0 .051.051.102.051.102h.102c.051 0 .051-.051.051-.102l3.363-15.491c.102-.509.357-.815.764-.815h3.21c.306 0 .459.357.459.917l.917 21.912v.102c0 .509-.153.815-.509.815h-2.191c-.306 0-.51-.306-.51-.866l-.611-17.02c0-.051 0-.102-.051-.102s-.051 0-.102.051l-3.618 17.122c-.102.509-.357.815-.663.815h-1.274c-.305 0-.56-.255-.662-.815l-3.516-17.02c0-.051-.051-.102-.102-.051v.102l-.662 16.867c0 .611-.153.866-.459.866h-2.293Z" fill="#ee4036" fill-rule="evenodd" data-name="Path 23"/><path d="M1888.932 57.16c-.153 0-.306-.051-.356-.153-.102-.102-.102-.306-.102-.611V34.229c0-.305.051-.56.102-.611a.46.46 0 0 1 .356-.153h2.956c.153 0 .305.051.356.153.102.102.102.306.102.611v19.976c0 .254.102.356.255.356h5.198c.153 0 .305.051.356.102.102.102.102.255.102.51v1.325c0 .254-.05.458-.102.56-.101.102-.203.102-.356.102h-8.867Z" fill="#ee4036" fill-rule="evenodd" data-name="Path 24"/><path d="M1902.843 54.765c-.203 0-.356-.051-.458-.204-.102-.153-.204-.306-.204-.509v-1.121c0-.051 0-.153.051-.204 0-.051.051-.102.051-.153.051-.051.051-.102.051-.153 0-.051.051-.102.102-.153.051-.051.102-.102.102-.153 0-.051.051-.051.102-.153l.153-.152c.05 0 .101-.051.152-.153.102-.051.153-.102.153-.153l4.484-4.586c.102-.102.153-.204.153-.306 0-.102-.051-.204-.203-.306l-4.434-4.433a1.398 1.398 0 0 0-.255-.204c-.101-.102-.203-.153-.203-.204l-.153-.153c-.102-.101-.153-.152-.153-.203 0-.051-.051-.102-.102-.204s-.051-.153-.102-.255V39.274c0-.204.051-.357.204-.509a.647.647 0 0 1 .459-.204c.152 0 .305.051.509.204l5.809 5.656.612.611c.102.102.203.255.305.459.102.204.153.459.153.662V47.223c0 .051-.051.153-.051.204-.051.102-.051.153-.051.204 0 .051-.051.102-.102.204s-.101.153-.101.153-.051.102-.153.204l-.153.152-.204.204c-.102.102-.204.153-.204.204l-5.758 5.758c-.255.204-.408.255-.561.255Z" fill="#ee4036" fill-rule="evenodd" data-name="Path 25"/></g></svg>