<svg xmlns="http://www.w3.org/2000/svg" width="84.81" height="127.513" viewBox="760.315 838.357 84.81 127.513"><path d="M844.427 920.873a1.979 1.979 0 0 0-2.786.227l-13.693 16.071-8.75-6.933a1.981 1.981 0 0 0-2.776.315c-.68.85-.538 2.089.316 2.766l10.247 8.121a1.982 1.982 0 0 0 2.738-.266l14.932-17.525a1.963 1.963 0 0 0-.228-2.776Zm-13.868 33.186a1.973 1.973 0 0 0-1.977 1.969c0 3.256-2.661 5.905-5.931 5.905h-52.452c-3.27 0-5.93-2.649-5.93-5.905V848.2c0-3.256 2.66-5.906 5.93-5.906h52.452c3.27 0 5.931 2.65 5.931 5.906v60.253c0 1.088.886 1.969 1.977 1.969 1.09 0 1.977-.881 1.977-1.969v-33.609a3.29 3.29 0 0 0 2.64-3.216v-8.612a3.288 3.288 0 0 0-2.64-3.215V848.2c0-5.428-4.434-9.843-9.885-9.843h-52.452c-5.451 0-9.884 4.415-9.884 9.843v107.828c0 5.427 4.433 9.842 9.884 9.842h52.452c5.018 0 9.174-3.741 9.803-8.571.054-.178.083-.367.083-.563v-.708a1.975 1.975 0 0 0-1.978-1.969ZM806.31 848.387c1.092 0 1.977-.88 1.977-1.968a1.973 1.973 0 0 0-1.977-1.969h-19.768a1.973 1.973 0 0 0-1.977 1.969c0 1.088.885 1.968 1.977 1.968h19.768Zm-15.38 106.739c0 3.017 2.466 5.472 5.496 5.472 3.03 0 5.496-2.455 5.496-5.472 0-3.017-2.466-5.471-5.496-5.471-3.03 0-5.496 2.455-5.496 5.471Zm7.038 0a1.54 1.54 0 0 1-1.542 1.536 1.54 1.54 0 0 1-1.542-1.536c0-.846.691-1.534 1.542-1.534a1.54 1.54 0 0 1 1.542 1.534Zm22.081-44.826a2.176 2.176 0 0 0 2.179-2.172v-44.065c0-3.665-3.536-6.881-7.567-6.881h-35.744c-4.172 0-7.567 3.381-7.567 7.537v73.476c0 4.156 3.395 7.536 7.567 7.536h31.186c1.205 0 2.18-.972 2.18-2.172a2.176 2.176 0 0 0-2.18-2.172h-31.186a3.205 3.205 0 0 1-3.207-3.194v-73.474a3.204 3.204 0 0 1 3.207-3.194h35.744c1.859 0 3.208 1.516 3.208 2.538v44.066c0 1.2.975 2.171 2.18 2.171Z" fill="#3d58a6" fill-rule="evenodd" data-name="Path 28"/></svg>