<svg xmlns="http://www.w3.org/2000/svg" width="100" height="130.502" viewBox="136.781 829.769 100 130.502"><g data-name="Group 10"><path d="M173.897 958.815a3.815 3.815 0 0 0 2.997 1.456h47.765c1.56 0 2.963-.952 3.546-2.405.073-.182.998-2.632 1.347-3.613a161.898 161.898 0 0 0 2.916-9.022c1.484-5.099 2.658-10.09 3.406-14.81 1.616-10.202 1.165-18.363-2.216-23.958-3.516-5.819-9.795-10.008-17.988-12.974-4.256-1.541-8.776-2.655-13.292-3.42-1.577-.268-2.557-.384-2.557-.384v-34.986c0-6.346-5.147-11.496-11.463-11.496h-1.912c-6.329 0-11.464 5.164-11.464 11.515l.007 60.637-12.726-11.185c-8.172-7.183-19.544-5.275-24.924 4.183-.84 1.477-.713 3.174.256 4.403l36.302 46.059Zm-27.328-49.671c3.12-2.399 7.231-2.211 10.662.803l19.057 16.749c2.47 2.172 6.338.409 6.338-2.888v-69.09c0-2.113 1.715-3.838 3.82-3.838h1.912a3.83 3.83 0 0 1 3.82 3.819v38.402a3.831 3.831 0 0 0 3.544 3.828 41.6 41.6 0 0 1 1.424.143c1.19.136 2.523.323 3.96.566 4.097.695 8.19 1.703 11.973 3.073 6.702 2.427 11.606 5.698 14.046 9.735 2.192 3.628 2.556 10.217 1.201 18.77-.691 4.367-1.794 9.051-3.194 13.86a153.87 153.87 0 0 1-2.776 8.592c-.33.928-.312.927-.312.927h-43.24l-33.422-42.327s.545-.63 1.187-1.124Z" fill="#3d58a6" fill-rule="evenodd" data-name="Path 29"/><path d="M212.467 850.429c-2.436-11.792-12.921-20.66-25.484-20.66-14.37 0-26.02 11.6-26.02 25.909 0 9.595 5.287 18.266 13.597 22.769a3.862 3.862 0 0 0 5.228-1.536 3.83 3.83 0 0 0-1.543-5.206c-5.854-3.173-9.572-9.272-9.572-16.027 0-10.069 8.197-18.232 18.31-18.232 10.112 0 18.309 8.163 18.309 18.232 0 6.681-3.637 12.724-9.39 15.927a3.83 3.83 0 0 0-1.484 5.223 3.864 3.864 0 0 0 5.246 1.477c7.464-4.155 12.426-11.689 13.224-20.199h11.317v3.847c0 1.036.705 1.409 1.574.79l10.344-7.356c.886-.631.869-1.621 0-2.239l-10.344-7.357c-.886-.63-1.574-.264-1.574.791v3.847h-11.738Z" fill="#3d58a6" fill-rule="evenodd" data-name="Path 30"/></g></svg>