<svg xmlns="http://www.w3.org/2000/svg" width="24.812" height="30" viewBox="189.327 1070.286 24.812 30"><path d="M205.139 1094.647v-3.542c0-.752-.218-1.128-.654-1.128-.256 0-.504.121-.745.361v5.053c.241.241.489.361.745.361.436 0 .654-.369.654-1.105Zm4.15-2.752h1.489v-.767c0-.767-.248-1.15-.745-1.15-.496 0-.744.383-.744 1.15v.767Zm-12.88-6v1.579h-1.804v9.541h-1.669v-9.541h-1.76v-1.579h5.233Zm4.534 2.842v8.278h-1.511v-.902c-.587.676-1.158 1.015-1.714 1.015-.497 0-.812-.211-.948-.632-.09-.24-.135-.646-.135-1.218v-6.54h1.489v6.089c0 .361.007.556.022.587.015.225.128.338.339.338.3 0 .616-.233.947-.699v-6.316h1.511Zm5.684 2.504v3.293c0 .782-.052 1.331-.157 1.646-.181.632-.579.948-1.196.948-.526 0-1.038-.308-1.534-.925v.812h-1.511v-11.12h1.511v3.631c.48-.601.993-.902 1.534-.902.617 0 1.015.316 1.196.947.105.316.157.873.157 1.67Zm5.662 2.909v.203c0 .436-.015.76-.045.97a2.128 2.128 0 0 1-.338.903c-.406.601-1.008.902-1.805.902-.782 0-1.391-.286-1.827-.857-.316-.406-.474-1.053-.474-1.94v-2.91c0-.887.151-1.534.451-1.94.437-.571 1.038-.857 1.805-.857.767 0 1.353.286 1.759.857.316.421.474 1.068.474 1.94v1.714h-3v1.467c0 .766.256 1.15.767 1.15.361 0 .586-.196.677-.587a5.11 5.11 0 0 0 .022-.53v-.485h1.534Zm-10.173-18.586v3.519c0 .767-.24 1.15-.722 1.15-.481 0-.721-.383-.721-1.15v-3.519c0-.782.24-1.173.721-1.173.482 0 .722.391.722 1.173Zm12.023 16.083c0-2.662-.143-4.617-.429-5.865a3.085 3.085 0 0 0-.97-1.658 3.04 3.04 0 0 0-1.714-.778c-2.045-.226-5.143-.338-9.293-.338-4.136 0-7.226.112-9.271.338a3.01 3.01 0 0 0-1.726.778 3.118 3.118 0 0 0-.958 1.658c-.3 1.308-.451 3.263-.451 5.865 0 2.646.15 4.601.451 5.864.15.647.47 1.196.958 1.647a2.96 2.96 0 0 0 1.703.789c2.061.226 5.158.339 9.294.339 4.135 0 7.233-.113 9.293-.339a2.958 2.958 0 0 0 1.703-.789c.489-.451.808-1 .959-1.647.3-1.263.451-3.218.451-5.864Zm-17.03-14.685 2.03-6.676h-1.692l-1.15 4.398-1.196-4.398h-1.759l.541 1.556.519 1.557c.526 1.548.872 2.736 1.037 3.563v4.534h1.67v-4.534Zm6.518 1.827v-2.932c0-.872-.157-1.526-.473-1.962-.436-.572-1.023-.857-1.76-.857-.767 0-1.353.285-1.759.857-.316.436-.474 1.09-.474 1.962v2.932c0 .873.158 1.527.474 1.963.406.571.992.857 1.759.857.737 0 1.324-.286 1.76-.857.316-.406.473-1.06.473-1.963Zm4.083 2.707h1.51v-8.346h-1.51v6.384c-.331.466-.647.699-.947.699-.226 0-.346-.12-.361-.361-.015-.03-.023-.225-.023-.586v-6.136h-1.511v6.609c0 .557.045.97.135 1.241.166.406.489.609.97.609.542 0 1.121-.338 1.737-1.015v.902Z" fill="#3d58a6" fill-rule="evenodd" data-name="Path 27"/></svg>